HIERARCHY
ROOT Hips
{
	OFFSET 0.00000 0.00000 0.00000
	CHANNELS 6 Xposition Yposition Zposition Zrotation Yrotation Xrotation 
	JOINT LHipJoint
	{
		OFFSET 0 0 0
		CHANNELS 3 Zrotation Yrotation Xrotation
		JOINT LeftUpLeg
		{
			OFFSET 1.57358 -1.76629 0.73362
			CHANNELS 3 Zrotation Yrotation Xrotation
			JOINT LeftLeg
			{
				OFFSET 2.40600 -6.61045 0.00000
				CHANNELS 3 Zrotation Yrotation Xrotation
				JOINT LeftFoot
				{
					OFFSET 2.66168 -7.31291 0.00000
					CHANNELS 3 Zrotation Yrotation Xrotation
					JOINT LeftToeBase
					{
						OFFSET 0.20870 -0.57341 2.12506
						CHANNELS 3 Zrotation Yrotation Xrotation
						End Site
						{
							OFFSET 0.00000 -0.00000 1.10557
						}
					}
				}
			}
		}
	}
	JOINT RHipJoint
	{
		OFFSET 0 0 0
		CHANNELS 3 Zrotation Yrotation Xrotation
		JOINT RightUpLeg
		{
			OFFSET -1.49299 -1.76629 0.73362
			CHANNELS 3 Zrotation Yrotation Xrotation
			JOINT RightLeg
			{
				OFFSET -2.43663 -6.69460 0.00000
				CHANNELS 3 Zrotation Yrotation Xrotation
				JOINT RightFoot
				{
					OFFSET -2.62959 -7.22474 0.00000
					CHANNELS 3 Zrotation Yrotation Xrotation
					JOINT RightToeBase
					{
						OFFSET -0.25784 -0.70841 2.21862
						CHANNELS 3 Zrotation Yrotation Xrotation
						End Site
						{
							OFFSET -0.00000 -0.00000 1.16452
						}
					}
				}
			}
		}
	}
	JOINT LowerBack
	{
		OFFSET 0 0 0
		CHANNELS 3 Zrotation Yrotation Xrotation
		JOINT Spine
		{
			OFFSET -0.00034 2.12399 -0.25450
			CHANNELS 3 Zrotation Yrotation Xrotation
			JOINT Spine1
			{
				OFFSET 0.05594 2.14379 -0.03318
				CHANNELS 3 Zrotation Yrotation Xrotation
				JOINT Neck
				{
					OFFSET 0 0 0
					CHANNELS 3 Zrotation Yrotation Xrotation
					JOINT Neck1
					{
						OFFSET -0.09835 1.62725 0.24211
						CHANNELS 3 Zrotation Yrotation Xrotation
						JOINT Head
						{
							OFFSET 0.10849 1.66041 -0.22648
							CHANNELS 3 Zrotation Yrotation Xrotation
							End Site
							{
								OFFSET 0.04385 1.68267 -0.10541
							}
						}
					}
				}
				JOINT LeftShoulder
				{
					OFFSET 0 0 0
					CHANNELS 3 Zrotation Yrotation Xrotation
					JOINT LeftArm
					{
						OFFSET 3.29108 0.79398 -0.68179
						CHANNELS 3 Zrotation Yrotation Xrotation
						JOINT LeftForeArm
						{
							OFFSET 5.15310 -0.00000 -0.00000
							CHANNELS 3 Zrotation Yrotation Xrotation
							JOINT LeftHand
							{
								OFFSET 3.75138 -0.00000 -0.00000
								CHANNELS 3 Zrotation Yrotation Xrotation
								JOINT LeftFingerBase
								{
									OFFSET 0 0 0
									CHANNELS 3 Zrotation Yrotation Xrotation
									JOINT LeftHandIndex1
									{
										OFFSET 0.52917 -0.00000 0.00000
										CHANNELS 3 Zrotation Yrotation Xrotation
										End Site
										{
											OFFSET 0.42663 -0.00000 0.00000
										}
									}
								}
								JOINT LThumb
								{
									OFFSET 0 0 0
									CHANNELS 3 Zrotation Yrotation Xrotation
									End Site
									{
										OFFSET 0.43315 -0.00000 0.43315
									}
								}
							}
						}
					}
				}
				JOINT RightShoulder
				{
					OFFSET 0 0 0
					CHANNELS 3 Zrotation Yrotation Xrotation
					JOINT RightArm
					{
						OFFSET -3.07414 1.06285 -0.44338
						CHANNELS 3 Zrotation Yrotation Xrotation
						JOINT RightForeArm
						{
							OFFSET -5.29613 -0.00000 0.00000
							CHANNELS 3 Zrotation Yrotation Xrotation
							JOINT RightHand
							{
								OFFSET -3.76144 -0.00000 -0.00000
								CHANNELS 3 Zrotation Yrotation Xrotation
								JOINT RightFingerBase
								{
									OFFSET 0 0 0
									CHANNELS 3 Zrotation Yrotation Xrotation
									JOINT RightHandIndex1
									{
										OFFSET -0.74732 -0.00000 0.00000
										CHANNELS 3 Zrotation Yrotation Xrotation
										End Site
										{
											OFFSET -0.60251 -0.00000 0.00000
										}
									}
								}
								JOINT RThumb
								{
									OFFSET 0 0 0
									CHANNELS 3 Zrotation Yrotation Xrotation
									End Site
									{
										OFFSET -0.61171 -0.00000 0.61171
									}
								}
							}
						}
					}
				}
			}
		}
	}
}
MOTION
Frames: 9
Frame Time: .0083333
-10.2653 16.9502 -26.601 0 0 0 0 0 0 -21 0 0 0 0 0 0 0 0 0 0 0 0 0 0 21 0 0 0 0 0 0 0 0 0 0 0 0 0 0 0 0 0 0 0 0 0 0 -16 0 0 21 0 0 11 0 0 0 -8 0 0 0 0 0 0 0 0 0 0 0 0 0 0 0 0 0 0 0 0 8 0 0 0 0 0 0 0 0 0 0 0 0 0 0 0 0 0
-10.2653 16.9502 -26.6010 -0.0799 -6.7691 2.9772 0.0000 0.0000 0.0000 -22.3476 3.4910 2.8642 12.2411 18.4907 66.7509 1.2216 -1.7568 21.5826 0.0242 -1.0053 -2.7633 0.0000 0.0000 0.0000 13.0124 15.8713 -28.1136 -5.5132 -13.9394 42.9952 -0.3072 1.3296 -10.0881 -0.3716 3.9156 -10.8394 -4.5515 0.4253 11.2822 2.9205 0.1546 1.2193 5.6370 0.1971 -5.0747 -9.8234 -2.0518 -20.0456 7.0552 -1.2412 12.2126 3.7781 -0.4060 7.1164 0.0000 -0.0000 0.0000 -88.2698 11.0729 31.0140 105.4738 -59.0757 -73.3591 -0.0000 0.0000 -28.0665 16.5038 8.6132 2.5407 -7.1250 0.0000 -0.0000 -8.9745 38.8093 1.3818 0.0000 -0.0000 0.0000 80.3263 -20.1318 39.4365 -124.3071 55.0485 -89.2169 0.0000 -0.0000 -20.3272 -4.8553 24.0688 -1.9841 7.1250 -0.0000 -0.0000 15.0090 -6.5047 13.7026
-10.2272 16.9409 -26.1781 -1.1481 -1.1912 2.2791 0.0000 0.0000 0.0000 -20.2058 -1.1539 2.4402 13.5497 18.9717 70.8243 0.5152 -4.1696 15.7261 1.7331 -8.2866 -23.5880 0.0000 0.0000 0.0000 14.8963 10.6478 -26.0809 -5.6248 -14.0546 43.4565 -0.4619 -0.5760 -13.0605 -0.4663 4.3800 -12.1484 -2.0281 -1.4234 12.2197 3.2182 -1.9754 1.2926 4.8673 -0.8986 -5.3100 -9.9088 -2.0944 -19.8678 6.8976 -1.2640 12.1518 3.7343 -0.4379 7.0686 0.0000 0.0000 0.0000 -88.9539 11.4095 30.4366 103.0428 -59.3474 -71.2707 -0.0000 0.0000 -28.2320 16.8017 9.2661 2.7835 -7.1250 0.0000 -0.0000 -8.8315 39.5029 1.2074 0.0000 0.0000 0.0000 79.6384 -18.4548 39.8872 -123.2564 55.3779 -88.3539 0.0000 -0.0000 -20.4762 -4.3860 24.0002 -1.7869 7.1250 -0.0000 -0.0000 15.2929 -6.6085 13.9502
-10.2848 16.8593 -25.8515 -2.5058 -7.1145 3.8202 0.0000 0.0000 0.0000 -18.0350 4.5383 -2.8872 14.7120 19.3159 74.3678 0.3177 -5.7953 14.3475 1.9121 -8.6806 -24.8013 0.0000 0.0000 0.0000 16.5607 15.6284 -25.8896 -5.6334 -14.0634 43.4920 -0.4681 -0.8093 -13.2429 -0.7043 5.3641 -14.9501 -2.7704 0.9728 11.1811 3.6801 1.1491 1.0574 5.2698 0.6674 -5.3012 -9.7580 -2.1698 -19.7818 6.5726 -1.3555 11.9529 3.5866 -0.5036 6.9940 -0.0000 -0.0000 0.0000 -89.5339 11.8184 30.1543 100.9287 -59.5439 -69.4500 -0.0000 0.0000 -28.4486 17.2140 9.9049 3.0506 -7.1250 0.0000 -0.0000 -8.5888 40.1940 1.0263 -0.0000 -0.0000 0.0000 79.0655 -16.7591 40.2151 -122.2543 55.6787 -87.5278 0.0000 -0.0000 -19.9867 -5.1502 23.8973 -2.0910 7.1250 -0.0000 -0.0000 14.8317 -6.6462 13.4868
-10.2203 16.8916 -25.4159 -2.7615 -0.1044 2.5953 0.0000 0.0000 0.0000 -16.9074 -1.4828 -2.7726 15.7662 19.5647 77.5342 0.5689 -5.1105 17.0287 0.5767 -4.8629 -13.5181 0.0000 0.0000 0.0000 17.4047 8.9781 -23.3917 -5.5794 -14.0080 43.2696 -0.6448 -2.2944 -16.1712 -0.7865 5.6614 -15.8052 -0.6963 -1.2982 12.3981 3.8511 -1.5857 1.1494 4.7310 -0.7210 -5.6178 -9.5554 -2.1652 -19.7062 6.0553 -1.3259 11.9557 3.3835 -0.5288 6.9747 0.0000 -0.0000 0.0000 -90.2926 12.4233 29.8260 99.3225 -59.6690 -68.0645 -0.0000 0.0000 -28.9240 17.2694 10.0778 3.1138 -7.1250 0.0000 -0.0000 -8.5718 40.3769 0.9853 0.0000 -0.0000 0.0000 78.2143 -14.9656 40.6235 -121.3215 55.9474 -86.7562 0.0000 -0.0000 -19.0829 -5.9053 23.8868 -2.3983 7.1250 -0.0000 -0.0000 14.3738 -6.5926 13.0566
-10.2096 16.8768 -25.0379 -3.0782 0.6791 2.6777 0.0000 0.0000 0.0000 -15.9472 -1.9171 -5.4193 16.7447 19.7440 80.4431 0.9664 -3.9937 20.4218 0.0848 1.8784 5.1698 0.0000 0.0000 0.0000 17.9572 8.1319 -21.8999 -5.5290 -13.9558 43.0607 -0.7686 -2.6770 -17.7391 -0.8852 5.9974 -16.7769 -0.4775 -1.3031 12.3006 4.0516 -1.5539 1.2444 4.8078 -0.7118 -5.4662 -9.4078 -2.1568 -20.0667 5.7062 -1.2683 12.2616 3.2544 -0.5263 7.1263 0.0000 -0.0000 0.0000 -90.9094 12.7592 29.6906 98.2187 -59.7432 -67.1115 -0.0000 0.0000 -29.7015 17.3579 9.9926 3.1046 -7.1250 0.0000 -0.0000 -8.4797 40.2966 0.9914 0.0000 -0.0000 0.0000 77.4388 -13.0615 40.9212 -120.8944 56.0669 -86.4020 0.0000 -0.0000 -18.3123 -5.7589 23.9871 -2.3478 7.1250 -0.0000 -0.0000 14.4625 -6.5080 13.1672
-10.1918 16.8760 -24.6638 -2.9720 1.0208 2.9245 0.0000 0.0000 0.0000 -15.6377 -1.9410 -8.3338 17.5846 19.8595 82.9219 1.3702 -2.9677 23.3564 1.3238 7.2867 20.5677 0.0000 0.0000 0.0000 17.9331 7.7189 -20.4959 -5.4164 -13.8379 42.5921 -0.8733 -2.5954 -18.7731 -0.9629 6.2481 -17.5059 -0.6855 -1.1041 11.9810 4.0827 -1.3260 1.4206 4.9049 -0.6030 -5.1163 -9.0066 -2.1235 -20.4335 5.2065 -1.2133 12.1615 3.0283 -0.5218 7.1434 0.0000 -0.0000 0.0000 -91.4401 12.8455 29.7410 97.6878 -59.7755 -66.6528 -0.0000 0.0000 -30.5012 17.1633 10.1173 3.1055 -7.1250 0.0000 -0.0000 -8.6711 40.4086 0.9901 0.0000 -0.0000 0.0000 76.8422 -11.3865 41.2000 -121.0739 56.0169 -86.5509 0.0000 -0.0000 -17.7661 -5.8730 23.9963 -2.3954 7.1250 -0.0000 -0.0000 14.3933 -6.4892 13.1052
-10.1719 16.8797 -24.3040 -2.9596 1.1077 3.1910 0.0000 0.0000 0.0000 -15.2572 -1.6038 -11.2956 18.3161 19.9319 85.0713 1.5396 -2.5372 24.4724 2.3933 9.6412 27.8224 0.0000 0.0000 0.0000 17.9890 7.5208 -19.1169 -5.3071 -13.7215 42.1331 -0.9546 -2.4359 -19.4874 -0.9577 6.2316 -17.4580 -0.6675 -0.8559 11.3376 3.9498 -1.0205 1.7461 4.6753 -0.4688 -4.4464 -8.5638 -2.0530 -20.2805 4.9063 -1.1942 11.5328 2.8520 -0.5127 6.9057 0.0000 0.0000 0.0000 -91.5122 12.7245 29.9799 97.5933 -59.7810 -66.5712 -0.0000 0.0000 -31.4694 17.1107 10.4489 3.1955 -7.1250 0.0000 -0.0000 -8.7780 40.7453 0.9291 0.0000 0.0000 0.0000 76.6691 -9.5539 41.4697 -121.2385 55.9708 -86.6874 0.0000 -0.0000 -17.3207 -6.0523 23.9145 -2.4611 7.1250 -0.0000 -0.0000 14.2845 -6.5530 12.9812
-10.1491 16.8932 -23.9451 -3.1940 1.2929 3.4782 0.0000 0.0000 0.0000 -14.6644 -1.3352 -14.1517 18.9127 19.9716 86.8194 1.2253 -2.9292 22.1507 1.8034 8.4439 24.0707 0.0000 0.0000 0.0000 18.3534 7.0671 -17.6713 -5.1527 -13.5537 41.4782 -0.9999 -2.4170 -19.9058 -1.0511 6.5193 -18.2989 0.1778 -0.6710 9.9219 3.4098 -0.7525 2.5141 3.5363 -0.3729 -2.9030 -7.9361 -2.0382 -20.4823 5.2116 -1.3697 10.9616 2.8266 -0.5311 6.7619 -0.0000 -0.0000 0.0000 -90.6251 12.0883 30.5172 98.1271 -59.7489 -67.0324 -0.0000 0.0000 -32.5176 16.6860 10.5689 3.1469 -7.1250 0.0000 -0.0000 -9.1706 40.8311 0.9518 -0.0000 -0.0000 0.0000 77.3863 -6.7258 41.4460 -121.1299 56.0013 -86.5973 0.0000 -0.0000 -17.9198 -5.6016 23.9498 -2.2800 7.1250 -0.0000 -0.0000 14.5580 -6.5576 13.2458
